<?xml version="1.0" encoding="utf-8"?>
<!-- Generator: Adobe Illustrator 16.0.0, SVG Export Plug-In . SVG Version: 6.00 Build 0)  -->
<!DOCTYPE svg PUBLIC "-//W3C//DTD SVG 1.1//EN" "http://www.w3.org/Graphics/SVG/1.1/DTD/svg11.dtd">
<svg version="1.1" id="Layer_1" xmlns="http://www.w3.org/2000/svg" xmlns:xlink="http://www.w3.org/1999/xlink" x="0px" y="0px"
	 width="150px" height="150px" viewBox="0 0 150 150" enable-background="new 0 0 150 150" xml:space="preserve">
<g>
	<path fill="#D9AF86" d="M148.014,113.536c-0.156-0.222-0.428-0.399-0.281-0.736c0.131-1.133,0.123-2.265,0.004-3.399
		c-0.08-3.25-0.123-6.502-0.004-9.753c0-4.306,0-8.612-0.002-12.918c0-1.462,0-2.925,0-4.386c0-4.223,0-8.446,0-12.671
		c-0.014-1.957-0.039-3.914-0.039-5.872c0-5.615,0.006-11.229,0.016-16.847c0.004-2.307,0.074-4.613,0.004-6.918
		c-0.02-0.575,0.685-1.39,0.685-1.39s-0.688-0.333-0.499-2.359c-0.252-4.815,0.041-9.637-0.15-14.45
		c-0.055-1.384-0.172-2.812-0.066-4.146c0.154-1.99-0.271-3.405,0.17-5.435c-0.006-1.645-0.014-3.289-0.025-4.933
		c-0.01-1.015,0.102-1.906,0.211-2.726c0.051-0.41,0.1-0.803,0.148-1.182l0.014-0.143l0.012-0.254l0.018-0.527
		c0.004-0.353,0.008-0.699,0.012-1.045c-0.385,0.004-0.773,0.018-1.15,0.043l-0.555,0.037c-0.199,0.012-0.229,0.022-0.35,0.033
		l-0.596,0.057c-0.398,0.027-0.793,0.054-1.188,0.08c-0.789,0.04-3.273,0.089-4.057,0.089c-1.189,0.181-2.42,0.086-3.631,0.095
		c-1.137,0.007-2.227-0.316-3.412-0.187c-1.906,0.207-3.854,0.057-5.779,0.049c-2.189-0.009-4.377-0.03-6.566-0.045
		c-2.191,0.161-4.385,0.112-6.58,0.024c-1.865-0.555-3.732-0.381-5.6-0.021c-2.162,0.261-4.324,0.159-6.49,0.057
		c-0.877,0.162-1.752,0.147-2.631,0.006c-1.49,0.032-2.975,0.164-4.479,0.068c-1.41-0.089-2.832-0.138-4.26-0.122
		c-8.02,0.092-16.041,0.232-24.062,0.038c-1.96-0.237-3.997,0.58-5.902-0.427c-1.159,0.964-2.568,0.564-3.826,0.532
		c-1.547-0.036-3.112,0.308-4.647-0.111c-2.519,0.396-5.053-0.063-7.584,0.14c-1.288,0.105-2.596-0.051-3.896-0.088
		c-0.365-0.445-0.774-0.302-1.188-0.088C36.314,1.953,32.821,1.695,29.325,1.7c-3.898,0.019-7.797,0.183-11.695-0.011
		c-0.669,0.146-1.448-0.363-1.848-0.233c-1.021,0.334-2.033,0.44-3.063,0.445c-1.801,0.006-3.587-0.256-5.404-0.167
		C6.016,1.797,3.954,1.563,2.688,1.828L2.667,2.913c-0.033,1.372,0.306,2.751-0.055,4.12c-0.299,1.549,0.098,3.128-0.205,4.678
		c0.022,0.341-0.143,0.724,0.221,0.988c0.311,1.586-0.009,3.195,0.174,4.788c0.182,0.163,0.174,0.339,0.024,0.519
		c-0.112,0.808-0.12,1.614,0.005,2.421c0.001,0.085,0.002,0.166,0.002,0.25c-0.256,0.763,0.262,1.581-0.17,2.331
		c0.134,0.62,0.161,1.242-0.013,1.858c0.116,0.354-0.555,0.714,0.005,1.065c0.158,0.801,0.158,1.604,0,2.406l0.003,0.021
		c0.132,0.545,0.171,1.092-0.005,1.635c0.001,0.43,0.002,0.857,0.002,1.286c0.145,0.558,0.16,1.115,0.001,1.672
		c0.013,0.704,0.245,1.415-0.093,2.102c-0.289,0.24-0.309,0.485-0.012,0.733c0.156,0.222,0.427,0.399,0.281,0.736
		c-0.131,1.133-0.123,2.265-0.004,3.399c0.08,3.25,0.123,6.502,0.003,9.753c0.001,4.306,0.001,8.612,0.002,12.918
		c0,1.462,0,2.925,0,4.386c0,4.223,0,8.446,0,12.671c0.015,1.957,0.039,3.914,0.039,5.872c0.001,5.615-0.005,11.229-0.015,16.847
		c-0.004,2.307-0.074,4.613-0.004,6.918c0.019,0.575-0.58,0.99-0.371,1.397c0.41,0.796,0.225,1.564,0.186,2.352
		c0.251,4.815-0.041,9.637,0.15,14.45c0.055,1.384,0.172,2.812,0.066,4.146c-0.154,1.99,0.271,3.405-0.17,5.435
		c0.006,1.645,0.014,3.289,0.025,4.933c0.009,1.015-0.103,1.906-0.211,2.726c-0.052,0.41-0.101,0.803-0.148,1.182l-0.014,0.143
		l-0.012,0.254l-0.019,0.527c-0.003,0.353-0.007,0.699-0.011,1.045c0.385-0.004,0.773-0.018,1.15-0.043l0.555-0.037
		c0.199-0.012,0.228-0.022,0.35-0.033l0.596-0.057c0.397-0.027,0.793-0.054,1.187-0.08c0.789-0.04,3.274-0.089,4.058-0.089
		c1.189-0.181,2.42-0.086,3.631-0.095c1.137-0.007,2.227,0.316,3.412,0.187c1.906-0.207,3.854-0.057,5.779-0.049
		c2.189,0.009,4.377,0.03,6.566,0.045c2.191-0.161,4.385-0.112,6.58-0.024c1.865,0.555,3.732,0.381,5.6,0.021
		c2.162-0.261,4.324-0.159,6.49-0.057c0.877-0.162,1.752-0.147,2.631-0.006c1.49-0.032,2.975-0.164,4.479-0.068
		c1.41,0.089,2.832,0.138,4.26,0.122c8.02-0.092,16.041-0.232,24.062-0.038c1.96,0.237,3.997-0.58,5.902,0.427
		c1.159-0.964,2.568-0.564,3.826-0.532c1.547,0.036,3.112-0.308,4.647,0.111c2.519-0.396,5.053,0.063,7.584-0.14
		c1.288-0.105,2.596,0.051,3.896,0.088c0.365,0.445,0.774,0.302,1.188,0.088c3.495-0.246,6.988,0.012,10.484,0.007
		c3.897-0.019,7.797-0.183,11.694,0.011c0.669-0.146,1.448,0.363,1.848,0.233c1.021-0.334,2.033-0.44,3.063-0.445
		c1.801-0.006,3.587,0.256,5.404,0.167c2.954-0.143,4.699,0.009,4.699-0.007l0.156-0.141c0.033-1.372-0.514-3.782-0.152-5.151
		c0.299-1.549-0.098-3.128,0.205-4.678c-0.023-0.341,0.143-0.724-0.221-0.988c-0.311-1.586,0.008-3.195-0.174-4.788
		c-0.182-0.163-0.174-0.339-0.025-0.519c0.113-0.808,0.121-1.614-0.004-2.421c-0.002-0.085-0.002-0.166-0.002-0.25
		c0.256-0.763-0.262-1.581,0.17-2.331c-0.135-0.62-0.162-1.242,0.012-1.858c-0.115-0.354,0.555-0.714-0.004-1.065
		c-0.158-0.801-0.158-1.604,0-2.406l-0.004-0.021c-0.131-0.545-0.17-1.092,0.006-1.635c-0.002-0.43-0.002-0.857-0.002-1.286
		c-0.145-0.558-0.16-1.115-0.002-1.672c-0.012-0.704-0.244-1.415,0.094-2.102C148.291,114.029,148.311,113.784,148.014,113.536z
		 M142.923,146.354c-1.549-0.299-3.128,0.098-4.678-0.205c-0.341,0.022-0.724-0.143-0.988,0.222c-1.586,0.31-3.195-0.01-4.788,0.174
		c-0.163,0.182-0.339,0.173-0.519,0.023c-0.808-0.112-1.614-0.12-2.421,0.005c-0.085,0.001-0.166,0.002-0.25,0.002
		c-0.763-0.256-1.581,0.262-2.331-0.17c-0.62,0.134-1.242,0.161-1.858-0.013c-0.354,0.116-0.714-0.555-1.065,0.005
		c-0.801,0.159-1.604,0.159-2.405,0l-0.021,0.003c-0.545,0.132-1.092,0.171-1.635-0.005c-0.43,0.001-0.857,0.002-1.286,0.002
		c-0.558,0.145-1.115,0.161-1.672,0.001c-0.704,0.013-1.415,0.245-2.102-0.093c-0.24-0.289-0.485-0.309-0.733-0.012
		c-0.222,0.157-0.399,0.427-0.736,0.281c-1.133-0.13-2.265-0.123-3.399-0.004c-3.25,0.08-6.502,0.124-9.753,0.003
		c-4.306,0.001-8.612,0.001-12.918,0.002c-1.462,0-2.925,0-4.386,0c-4.223,0-8.446,0-12.671,0c-1.957,0.015-3.914,0.039-5.873,0.039
		c-5.615,0.001-11.229-0.005-16.846-0.015c-2.307-0.004-4.613-0.074-6.918-0.003c-0.576,0.018-1.452-0.785-1.452-0.785
		s-0.531,0.719-2.298,0.599c-4.814,0.251-9.637-0.041-14.449,0.15c-1.385,0.055-2.813,0.172-4.146,0.067
		c-1.99-0.155-4.051,0.288-5.988-0.484c-1.154-0.057-1.502,0.03-2.656,0.003l-3.248-0.043l-1.624,0.002l-0.673,0.006l-0.055,0.01
		l-0.01-0.036l-0.006-0.021l-0.006-0.236l-0.025-1.19l-0.071-2.382l-0.198-4.763c-0.17-1.409,0.25-3.615,0.121-4.801
		c-0.207-1.907-0.057-3.854-0.049-5.78c0.009-2.189,0.029-4.377,0.045-6.565c-0.161-2.192-0.113-4.386-0.024-6.581
		c0.554-1.865,0.38-3.732,0.021-5.6c-0.262-2.161-0.159-4.324-0.057-6.489c-0.162-0.877-0.147-1.752-0.006-2.631
		c-0.033-1.491-0.164-2.976-0.068-4.479c0.088-1.41,0.138-2.832,0.121-4.26c-0.092-8.02-0.231-16.04-0.037-24.061
		c0.236-1.96-0.58-3.997,0.426-5.902c-0.963-1.159-0.564-2.568-0.531-3.826c0.036-1.547-0.308-3.112,0.111-4.647
		C3.44,49.352,3.9,46.817,3.696,44.286c-0.104-1.288,0.052-2.596,0.088-3.896c0.445-0.365,0.303-0.774,0.088-1.188
		c-0.245-3.495,0.013-6.988,0.008-10.484c-0.019-3.898-0.184-7.798,0.011-11.695c-0.146-0.669,0.362-1.448,0.233-1.848
		c-0.334-1.021-0.441-2.033-0.445-3.063C3.673,10.31,3.935,8.523,3.846,6.706C3.782,5.407,3.788,4.18,3.522,2.913h0
		c1.372,0.033,2.751-0.306,4.12,0.055C9.191,3.267,10.77,2.87,12.32,3.173c0.341-0.022,0.724,0.143,0.988-0.222
		c1.586-0.31,3.195,0.01,4.788-0.174c0.163-0.182,0.339-0.173,0.519-0.023c0.808,0.112,1.614,0.12,2.421-0.005
		c0.085-0.001,0.166-0.002,0.25-0.002c0.763,0.256,1.581-0.262,2.331,0.17c0.62-0.134,1.242-0.161,1.858,0.013
		c0.354-0.116,0.714,0.555,1.066-0.005c0.801-0.159,1.604-0.159,2.405,0l0.021-0.003c0.545-0.132,1.092-0.171,1.635,0.005
		c0.43-0.001,0.857-0.002,1.286-0.002c0.558-0.145,1.115-0.161,1.672-0.001c0.704-0.013,1.415-0.245,2.102,0.093
		c0.24,0.289,0.485,0.309,0.733,0.012c0.222-0.157,0.399-0.427,0.736-0.281c1.133,0.13,2.265,0.123,3.399,0.004
		c3.25-0.08,6.502-0.124,9.753-0.003c4.306-0.001,8.612-0.001,12.918-0.002c1.462,0,2.925,0,4.386,0c4.223,0,8.446,0,12.671,0
		c1.957-0.015,3.914-0.039,5.873-0.039c5.615-0.001,11.229,0.005,16.846,0.015c2.307,0.004,4.613,0.074,6.918,0.003
		c0.576-0.018,0.99,0.58,1.398,0.371c0.795-0.409,1.564-0.224,2.352-0.185c4.814-0.251,9.637,0.041,14.449-0.15
		c1.385-0.055,2.813-0.172,4.146-0.067c1.99,0.155,4.051-0.288,5.988,0.484c1.154,0.057,1.502-0.03,2.656-0.003l3.248,0.043
		l1.623-0.002l0.674-0.006l0.055-0.01l0.01,0.036l0.006,0.021l0.006,0.236l0.025,1.19l0.07,2.382l0.199,4.763
		c0.17,1.409-0.25,3.615-0.121,4.801c0.207,1.907,0.057,3.854,0.049,5.78c-0.01,2.189-0.029,4.377-0.045,6.565
		c0.16,2.192,0.113,4.386,0.023,6.581c-0.553,1.865-0.379,3.732-0.02,5.6c0.262,2.161,0.158,4.324,0.057,6.489
		c0.162,0.877,0.146,1.752,0.006,2.631c0.033,1.491,0.164,2.976,0.068,4.479c-0.088,1.41-0.139,2.832-0.121,4.26
		c0.092,8.02,0.23,16.04,0.037,24.061c-0.236,1.96,0.58,3.997-0.426,5.902c0.963,1.159,0.564,2.568,0.531,3.826
		c-0.037,1.547,0.307,3.112-0.111,4.647c0.396,2.519-0.064,5.053,0.141,7.584c0.104,1.288-0.053,2.596-0.088,3.896
		c-0.445,0.365-0.303,0.774-0.088,1.188c0.244,3.495-0.014,6.988-0.008,10.484c0.018,3.898,0.184,7.798-0.012,11.695
		c0.146,0.669-0.361,1.448-0.232,1.848c0.334,1.021,0.441,2.033,0.445,3.063c0.006,1.801-0.256,3.587-0.168,5.404
		c0.064,1.299,0.059,2.526,0.324,3.793C145.671,146.376,144.292,146.715,142.923,146.354z"/>
</g>
</svg>
