<?xml version="1.0" encoding="utf-8"?>
<!-- Generator: Adobe Illustrator 16.0.0, SVG Export Plug-In . SVG Version: 6.00 Build 0)  -->
<!DOCTYPE svg PUBLIC "-//W3C//DTD SVG 1.1//EN" "http://www.w3.org/Graphics/SVG/1.1/DTD/svg11.dtd">
<svg version="1.1" id="Layer_1" xmlns="http://www.w3.org/2000/svg" xmlns:xlink="http://www.w3.org/1999/xlink" x="0px" y="0px"
	 width="150px" height="2px" viewBox="0 0 150 2" enable-background="new 0 0 150 2" xml:space="preserve">
<g>
	<path fill="#D9AF86" d="M128.688,0.489c0.082-0.001,0.164-0.001,0.245-0.003c0.795-0.124,1.59-0.115,2.385-0.005
		c0.177,0.148,0.349,0.156,0.514-0.022c1.566-0.18,3.152,0.134,4.715-0.171c0.26-0.359,0.637-0.196,0.973-0.218
		c1.526,0.298,3.082-0.091,4.608,0.202c1.349,0.355,2.706,0.021,4.058,0.053c0.338,0.329,1.025-0.326,1.211,0.431
		c-0.16,0.081-0.32,0.162-0.482,0.243c-1.458,0.435-2.957,0.415-4.463,0.488c-1.791,0.088-3.551-0.171-5.325-0.164
		c-1.015,0.003-2.01,0.109-3.017,0.437c-0.394,0.128-1.161-0.374-1.818-0.229c-3.842-0.191-7.684-0.028-11.523-0.011
		c-3.441,0.004-6.883-0.25-10.326-0.008c-0.406,0.211-0.811,0.353-1.17-0.085c-1.281-0.038-2.571-0.19-3.841-0.088
		c-2.491,0.202-4.985-0.253-7.469,0.139c-1.512-0.413-3.054-0.074-4.576-0.111c-1.24-0.031-2.63-0.424-3.771,0.525
		c-1.875-0.991-3.882-0.187-5.813-0.419C75.901,1.28,68,1.418,60.101,1.508c-1.406,0.016-2.807-0.032-4.196-0.121
		c-1.482-0.094-2.943,0.036-4.414,0.069c-0.864-0.14-1.728-0.154-2.592,0.006c-2.131-0.103-4.263-0.203-6.391,0.055
		c-1.84,0.354-3.68,0.523-5.516-0.02C34.831,1.41,32.67,1.363,30.51,1.521c-2.155-0.015-4.311-0.035-6.466-0.044
		c-1.899-0.008-3.816-0.156-5.693,0.049c-1.169,0.127-2.242-0.191-3.361-0.184c-1.194,0.008-2.406-0.084-3.576,0.093
		C9.901,1.664,8.41,1.297,6.91,1.478c-0.7,0.084-1.411,0.048-2.073-0.267C4.439,1.059,4.04,0.907,3.642,0.755
		c0.187-0.757,0.875-0.101,1.214-0.431c0.87-0.062,1.741,0.222,2.609-0.014C7.947,0.334,8.433,0.446,8.91,0.27
		c1.519-0.29,3.068,0.101,4.586-0.206c1.909,0.761,3.938,0.324,5.899,0.478c1.313,0.103,2.72-0.012,4.083-0.066
		c4.743-0.188,9.492,0.1,14.234-0.148c0.777,0.039,1.533,0.221,2.316-0.181c0.401-0.206,0.81,0.382,1.377,0.365
		c2.27-0.069,4.543-0.001,6.815,0.002c5.531,0.01,11.063,0.016,16.594,0.015c1.928,0,3.855-0.025,5.784-0.039
		c4.162,0,8.321,0,12.483,0c1.44,0,2.88,0,4.319,0c4.241,0,8.482-0.001,12.724-0.001c3.202,0.119,6.406,0.076,9.608-0.003
		c1.116-0.118,2.232-0.125,3.349,0.004c0.331,0.143,0.506-0.123,0.724-0.278c0.246-0.292,0.485-0.273,0.723,0.012
		c0.676,0.333,1.379,0.103,2.071,0.092c0.548,0.157,1.097,0.141,1.646-0.001c0.423,0,0.845-0.001,1.266-0.002
		c0.537,0.174,1.073,0.135,1.611,0.005l0.021-0.003c0.79,0.157,1.581,0.157,2.371,0c0.346-0.551,0.698,0.11,1.048-0.005
		c0.609,0.172,1.219,0.145,1.831,0.012C127.132,0.747,127.938,0.237,128.688,0.489z"/>
	<path fill="#D18A8B" d="M147.396,0.755c-0.265-0.534-0.888-0.059-1.21-0.431c0.088-0.032,0.178-0.065,0.266-0.098
		c0.563,0.026,1.125,0.053,1.808,0.085C147.964,0.643,147.722,0.781,147.396,0.755z"/>
	<path fill="#D28A8C" d="M4.855,0.324C4.532,0.695,3.908,0.22,3.642,0.754C3.298,0.808,3.1,0.589,2.677,0.362
		C3.554,0.219,4.204,0.232,4.855,0.324z"/>
</g>
</svg>
